<?xml version="1.0" encoding="UTF-8"?>
<svg width="197.92mm" height="164.1mm" version="1.1" viewBox="0 0 197.92 164.1" xmlns="http://www.w3.org/2000/svg">
 <g transform="translate(100.56 -146.21)">
  <circle cx="-2.0789" cy="228.26" r="79.186" fill="none" stroke="#8f3935" stroke-width="5.724"/>
  <path d="m-17.263 300.83c-0.70631-0.18232-1.607-0.53422-2.0016-0.78199l-0.71745-0.45051v-1.0161l1.152-0.77326-0.59989-1.0742 0.26381-0.66494 0.2638-0.66495 0.77157-0.46292c0.42435-0.25461 0.81015-0.48633 0.85731-0.51494 0.0472-0.0286-0.23237-0.35689-0.62119-0.72951l-0.70695-0.6775v-1.8048l0.56473-0.68803 0.56473-0.68802 2.0455-0.54584 1.7946 0.50616c0.98701 0.2784 2.1362 0.57797 2.5538 0.66573l0.75924 0.15955v0.77044l-1.6515-0.31654 0.29257 0.80429 0.29257 0.8043-0.45145 0.83664-0.45146 0.83664-1.9759 0.79118-1.2908-0.17013-1.2908-0.17014-0.35953 0.41516-0.35954 0.41516 0.63843 0.73721 3.6785 0.66516 1.2724 1.2194v0.55859c0 0.30722-0.13424 0.79897-0.29831 1.0928l-0.29831 0.53417-0.93521 0.37448c-1.1204 0.44862-2.0389 0.4504-3.7556 7e-3zm3.4703-0.32256 0.43671-0.1606v-0.96068l-0.89729-0.28153c-0.4935-0.15484-1.5483-0.3989-2.3441-0.54235l-1.4468-0.26083-0.83355 0.30653v0.9831l0.62119 0.31984c1.2154 0.62578 3.5397 0.93638 4.4638 0.59652zm-0.37846-7.4505 0.30864-0.98787-0.0918-0.92604-0.0918-0.92605-0.60375-0.0823-0.60374-0.0824-0.41007 0.61152c-0.22554 0.33634-0.49298 1.1579-0.59431 1.8257l-0.18425 1.2142 0.458 0.43891 0.45799 0.43891 0.52327-0.26838 0.52326-0.26837zm11.755 5.562-1.898-0.0933 0.47939-0.33594 0.47939-0.33593 0.29206-5.9051-0.92643-0.34069-1.0095 0.87552-0.14571 2.5709-0.14572 2.5709 0.44745 0.48419 0.44744 0.48419-1.7883-0.0629c-0.98358-0.0346-1.9473-0.11774-2.1416-0.18476l-0.35322-0.12184 0.92992-0.65164 0.21477-4.8684 0.21476-4.8684-0.44439-0.32799c-0.61928-0.45707-0.4376-0.50691 1.4093-0.38655l1.6179 0.10544-0.38478 4.4268 2.1421-1.1244 1.4849 0.35717 0.45735 0.84755 0.45734 0.84756-0.16157 2.7342-0.16156 2.7342 0.39946 0.1469c0.40262 0.14807 0.5775 0.66401 0.1924 0.56763-0.11389-0.0285-1.0612-0.0938-2.1051-0.14513zm16.13-2.191c-0.17432-0.65117-0.43566-1.5307-0.58077-1.9544-0.30266-0.8839-0.0771-1.3054 0.32762-0.61229 0.44448 0.76114 1.4202 1.552 2.4236 1.9645l0.94192 0.38719 1.7466-0.31401 1.2011-1.0724v-1.5547l-1.2536-0.78716-5.1055-1.1265-1.6032-1.5364-0.36474-1.5914 1.0107-1.9752 0.93811-0.59881 0.93811-0.5988h3.48l0.4806-0.823 0.47455 1.6358c0.49325 1.7002 0.45075 2.2891-0.0947 1.3124-0.17384-0.31129-0.71192-0.7973-1.1957-1.08l-0.87966-0.51401-2.3067-2e-3 -0.57221 0.69714c-0.70817 0.86278-0.7152 1.1727-0.0423 1.8648l0.52989 0.54507 1.8859 0.32915c2.2337 0.38985 3.9016 1.0411 4.6011 1.7966l0.50655 0.54704 0.14584 1.042 0.14585 1.042-0.89672 1.7935-2.0646 1.3044-3.7031 0.018-0.39879 0.52249-0.3988 0.52249-0.31694-1.184zm13.721 0.6252c0.5898-0.22807 0.40364-0.82367-1.5681-5.017-1.9821-4.2154-2.4104-4.862-3.2207-4.862h-0.47987l0.17771-0.1703c0.0977-0.0937 0.86517-0.43806 1.7054-0.76533l1.5277-0.59504 0.52963 0.86921 0.016-0.879 1.764-1.4225 1.9113 0.29724 0.81998 0.73753c0.45099 0.40565 1.0501 1.2138 1.3313 1.7959l0.5113 1.0583 0.012 2.5542-1.6707 1.6011-1.0973-0.10029c-0.60351-0.0552-1.0973-0.064-1.0973-0.0196s0.36996 0.78303 0.82214 1.6415l0.82214 1.5608 1.2546 0.1728-1.8946 0.8588c-1.042 0.47233-2.0359 0.84939-2.2087 0.8379l-0.31412-0.0209 0.34511-0.13346zm3.106-6.2995v-0.91849l-0.7014-1.5199c-0.38577-0.83595-0.90198-1.7323-1.1471-1.9919l-0.44574-0.47201h-1.3067l-0.62177 1.3078 1.8208 4.002 0.44175 0.24748c0.24297 0.13611 0.78341 0.2511 1.201 0.25553l0.75924 8e-3zm-54.941 4.6198-1.2424-0.47716 0.0399-0.43042 0.0399-0.43041-0.52258 0.15894c-0.28741 0.0874-0.91586 0.16967-1.3965 0.18277l-0.87396 0.0238-1.0139-1.2v-1.4867l1.7002-4.6162-0.13401-0.49111-0.13402-0.49111h0.20106c0.11058 0 0.77429 0.18718 1.4749 0.41596l1.2738 0.41596-2.3032 6.2932 0.6671 0.6393 0.66387-0.28988 0.66388-0.28988 0.88134-2.3342 0.88135-2.3342-0.11901-0.59663c-0.0655-0.32814-0.0963-0.59663-0.0684-0.59663 0.0928 0 2.7706 0.86958 2.8443 0.92363 0.0399 0.0293-0.48076 1.5213-1.157 3.3156l-1.2295 3.2624 0.53888 0.96496-0.21678-0.0274c-0.11923-0.0151-0.77586-0.24216-1.4592-0.5046zm-13.303-5.4154-1.007-0.65578-0.3268-0.94897-0.32681-0.94896 0.18858-0.97494c0.36126-1.8678 1.6478-3.2563 3.485-3.7612l0.78793-0.21656 1.9327 0.5114 0.65922 0.84885c0.36258 0.46687 0.73588 1.1604 0.82956 1.5412l0.17032 0.69238-0.80734 2.6054-0.76573 0.6846c-1.0552 0.94338-1.8132 1.2784-2.8922 1.2784h-0.92036zm1.9525-0.63776c0.67384-0.64576 2.3997-3.6579 2.621-4.5743l0.17104-0.70847-0.8671-0.83097-0.46707 0.23955c-0.76935 0.39458-1.3553 1.1394-2.3836 3.0301-1.0426 1.917-1.1715 2.5217-0.64488 3.0263 0.47132 0.45168 0.96945 0.39386 1.5706-0.18229zm71.628-1.8659-0.8755-0.51159-0.68493-1.1411c-0.37671-0.62759-0.76524-1.5112-0.86341-1.9636l-0.17848-0.82252 0.89514-2.144 1.6153-0.74972 0.81706 0.11492 0.81706 0.11493 2.0291 1.6809-3.4604 2.1793 0.87099 0.81594 0.87099 0.81595 0.72738 0.17495 0.72738 0.17496 0.44042-0.26409 0.44042-0.26408 0.1748-1.4018h0.5155v0.6746c0 0.37102-0.18846 1.0239-0.41881 1.4507l-0.4188 0.77613-0.80988 0.40135c-0.44543 0.22075-1.1577 0.40091-1.5828 0.40037l-0.77295-1e-3 -0.87551-0.5116zm0.98303-4.4314c0.0591-0.0372-0.22673-0.48762-0.63525-1.0009l-0.74276-0.93324h-0.86003l0.18046 0.68902c0.0993 0.37896 0.3769 0.97635 0.61702 1.3275l0.43656 0.63853 0.44824-0.32664c0.24653-0.17964 0.49662-0.35708 0.55576-0.3943zm-83.465 1.1015-1.6356-1.1836h1.1083l3.8194-5.0581-0.0688-0.52994-0.0688-0.52993 2.5024 1.7222-0.17361 0.41193c-0.0955 0.22655-0.23382 0.55255-0.3074 0.72442l-0.1338 0.31251 1.9718-0.57996 1.3857 0.60506v1.2695l-0.39893 0.31729-0.39894 0.31729-1.2728-0.173-0.0904-0.61149-0.0904-0.6115-0.7897-0.2904-0.69824 0.43844c-0.38403 0.24114-1.2556 1.164-1.9367 2.0507l-1.2385 1.6123 0.16291 0.49191c0.0896 0.27054 0.12348 0.48873 0.0753 0.48485-0.0482-4e-3 -0.82365-0.53966-1.7232-1.1906zm89.983-1.9431c-1.7851-1.0625-2.6228-2.434-2.6228-4.2941v-1.0504l0.43674-0.63878 0.43675-0.63879 1.84-0.58196 0.92096 0.38167c0.50652 0.20991 1.1694 0.57445 1.4731 0.81007l0.55217 0.42842-1.4754 1.2752-1.4754 1.2751 0.87552 0.70601c0.48154 0.38831 1.1958 0.78304 1.5872 0.87718l0.71167 0.17118 0.44042-0.2642 0.44042-0.26419 0.172-1.9419 0.25908 0.15344 0.25908 0.15345v1.5826l-0.41256 0.76455c-0.2269 0.4205-0.68938 0.95037-1.0277 1.1775l-0.61518 0.41294-1.9478-2e-3 -0.82827-0.49297zm0.41646-4.7925c-0.23774-0.42571-1.4516-1.3271-1.7872-1.3271-0.33674 0-0.10918 0.9234 0.43582 1.7685l0.58358 0.9049 1.0238-0.8879zm-96.357 2.2211-1.5185-1.4268 1.3943-4e-3 4.0435-3.9011-0.0989-0.49685-0.0989-0.49686-1.2537-0.1712-4.1563 3.8622 0.12815 0.46962 0.12815 0.46963-0.18122-3e-3c-0.0997-2e-3 -0.86453-0.59171-1.6997-1.3114l-1.5185-1.3085 1.4264-0.023 7.1323-6.9177-0.0219-0.5099c-0.0314-0.72969 0.18743-0.64392 1.4045 0.55056l1.0805 1.0604-3.2026 3.1015 0.78388 0.18482c0.43113 0.10165 1.0634 0.35809 1.4051 0.56988l0.6212 0.38505v2.1103l-4.0852 4.0977-0.1942 1.1361-1.5185-1.4268zm102.37-3.559-1.0205-0.51651-1.4783-1.8574-0.26936-2.2902 0.92643-1.7169 1.8695-0.74859 1.3315 0.48516 0.18047 0.45067 0.18046 0.45069-0.31466 0.36333c-0.41628 0.48069-0.85804 0.45823-1.8634-0.0947l-0.83281-0.45805-0.18902 0.18115-0.18903 0.18114 0.16058 0.61314 0.16058 0.61315 0.8933 0.87561c1.0469 1.0261 2.7017 1.8915 3.6172 1.8915h0.646l0.3313-0.3175 0.33131-0.3175v-1.4817h0.62243l-0.2754 2.7467-0.86809 0.74332-0.86809 0.74331-2.0619-0.0234zm8.1604-5.7062 0.0383-0.42522-8.2826-5.5234-1.2424 0.21504v-0.17577c0-0.22483 1.6616-2.3967 1.8336-2.3967 0.0711 0 0.83687 0.45552 1.7017 1.0123s1.6966 1.0806 1.8484 1.1642l0.27609 0.15199 0.0147-1.0668 0.0147-1.0667 1.2741-0.98874h1.5622l4.9951 3.2344 0.41795-0.1537c0.60832-0.22371 0.53202-0.0315-0.61738 1.5553-1.0902 1.5051-1.4129 1.7431-1.3498 0.99564l0.0383-0.45376-5.0324-3.3046-0.93605 0.65594 0.53126 1.3391 4.4608 2.8066 0.41919-0.15415c0.61371-0.22569 0.531-0.0151-0.61613 1.5686-1.0731 1.4815-1.4153 1.7377-1.3498 1.0104zm-120.77-1.8749c-0.82507-1.1195-1.613-2.2209-1.7509-2.4474l-0.25074-0.41188 0.54856 0.46302c0.30171 0.25466 0.73308 0.46302 0.9586 0.46302s1.9754-1.0716 3.8886-2.3812c1.9132-1.3097 3.5943-2.3812 3.7358-2.3812 0.14147 0 0.47921-0.23508 0.75053-0.52239l0.49331-0.52239-0.89686-1.3117-0.97225-0.1748c-0.53473-0.0961-1.2811-0.11821-1.6586-0.049-0.95975 0.17582-0.84182-0.0808 0.42202-0.91845l1.0874-0.72069 0.64742 0.5884c0.6464 0.58747 5.3696 6.8531 5.6002 7.4291l0.12177 0.30413-0.62446 0.37062c-0.34346 0.20384-0.90446 0.545-1.2467 0.75813l-0.62221 0.3875 1.0515-2.2507-0.27006-0.74243c-0.14854-0.40834-0.43071-0.8702-0.62705-1.0264l-0.35698-0.28392-3.0037 1.9417c-1.652 1.068-3.6047 2.3497-4.3394 2.8482l-1.3357 0.90652 0.145 0.85989c0.0797 0.47294 0.1135 0.8599 0.075 0.8599s-0.74507-0.91599-1.5702-2.0355zm68.488 14.595c10.175-1.5728 19.056-5.5199 27.195-12.086l2.7609-2.2274 5.1277-5.4935 1.8838-2.6601c1.7076-2.4114 4.1363-6.2998 4.259-6.8189l0.049-0.20726-49.122 1e-3c-27.017 7.9e-4 -49.177 0.0546-49.245 0.1197-0.18713 0.17934 1.7114 3.4066 3.6646 6.2294 0.95658 1.3824 2.9158 3.8232 4.3538 5.424l2.6146 2.9104 2.5919 2.1483c3.3363 2.7653 6.2612 4.7668 9.6643 6.6134l2.7243 1.4782 6.7685 2.6377 7.1783 1.7592 2.6228 0.28954c1.4426 0.15925 3.0577 0.33804 3.5891 0.39732 0.53147 0.0593 2.7056 0.0587 4.8315-1e-3l3.8652-0.109 2.6228-0.40543zm27.729-31.594 0.71738-0.6459-0.148-12.202-1.9326-0.92522-66.925-1e-3 -1.3455 0.58752-0.61306 1.2895v10.842l0.46373 0.67826c0.25506 0.37304 0.72095 0.77876 1.0353 0.9016l0.57159 0.22334 67.459-0.102 0.71738-0.6459zm-111.66-25.641v0.22616h1.0677l0.0874 0.7276 0.0874 0.72761h0.69021c0.37962 0 0.85379 0.10122 1.0537 0.22493s0.4026 0.18324 0.45041 0.13229c0.0478-0.051 0.16378-2.6525 0.2577-5.7812 0.0939-3.1287 0.24826-6.7936 0.343-8.1442l0.17225-2.4556 0.96047-0.49261 0.15011-1.0725 0.1501-1.0725 2.757-2.6282 0.1992-4.6396 0.48026-0.90054 0.48027-0.90054 8e-3 -5.0781 0.53526-0.79375 0.0276 1.4552c0.05 2.6432 0.26294 4.8837 0.53802 5.6619l0.27115 0.76709v4.2016l2.5114 2.3391 0.16638 1.3462 0.16637 1.3462-0.68002 0.40276 1.6149 0.30953 0.17986 2.9914c0.0989 1.6453 0.18042 4.7544 0.18111 6.9092l1e-3 3.9178 2.3467-0.1628 0.0758-1.1906c0.30791-4.8344 1.5077-10.555 3.2965-15.718l1.2748-3.679 3.7152-7.194 1.9123-2.7781c2.4424-3.5484 5.349-6.8725 8.8115-10.077l2.7407-2.5368 2.6148-1.8462c3.5908-2.5354 6.2103-4.0503 9.9367-5.7467l3.1694-1.4429 6.6261-2.1114 2.8989-0.54782c1.5944-0.3013 3.9517-0.66994 5.2384-0.81919l2.3394-0.27138h8.1308l6.5163 0.8097 3.2126 0.77018c14.074 3.374 26.254 11.768 34.632 23.867l2.0134 2.9079 1.6483 3.2191c2.1294 4.1588 3.484 7.6737 4.6055 11.95l0.90197 3.4396 0.42952 3.0427c0.23623 1.6735 0.5088 4.1922 0.6057 5.5972l0.17619 2.5545 1.885 0.3389v3.3844l0.57636 0.34136 0.38534-0.30648 0.38535-0.30648 1.5492 0.1706 0.28226 1.5875 1.2388 0.1692 0.064 1.4184 0.12626-0.46302c0.0694-0.25466 0.24139-0.46302 0.3821-0.46302l2e-4 -6.9e-4h0.25584v-2.9104h2.4848v-1.5875h0.80503l0.1612-4.101 6.212-0.1496v-0.54306l0.25017 0.14817 0.25016 0.14817-0.13617 0.49904-0.13618 0.49904 0.64839 0.38403 0.607-0.5817-0.46754-4.5677 4.8284 2.0475 0.045 5.5562c0.0247 3.0559 0.0844 4.8069 0.13257 3.891l0.0876-1.6652 1.3067-0.57055 0.12604-0.4619 0.12604-0.46191 1.7747-0.24961 0.24556 0.61896 0.24556 0.61897h1.3747l0.28581 0.51177c0.15719 0.28148 0.2858 0.80452 0.2858 1.1623v0.65054l0.43671 0.1606c0.24019 0.0883 0.86138 0.1606 1.3804 0.1606h0.94373v2.1608l0.3451-0.1092 0.34511-0.10919 0.1644-3.2652h0.62183c0.342 0 0.76906-0.1411 0.94901-0.31356l0.32718-0.31355 6.2765-0.23023 0.17515 0.6271 0.17515 0.62711 8e-3 21.806-21.932 0.0318-5.2114 0.0836c-0.0649-0.0622-4.4514-0.1384-9.7478-0.16943l-9.6299-0.0564-1.4784 2.6458c-5.046 9.0309-11.701 16.16-20.087 21.518-7.5192 4.8041-15.98 7.7735-25.081 8.8021l-2.7239 0.30787-11.368-0.29224-6.9022-1.3884-7.3439-2.3448-3.301-1.5749c-11.268-5.3757-20.722-14.302-26.296-24.828l-1.4355-2.7108-23.417-0.0025-10.586-0.0331c-5.8221-0.0182-10.741-0.048-10.931-0.0661l-0.34511-0.0331-0.0809-11.642c-0.0445-6.4029-6e-3 -12.148 0.0859-12.766l0.16684-1.1245h2.6957l0.85445-1.1691-0.54706-0.52426v-2.2754h0.94372c0.51905 0 1.1402-0.0723 1.3804-0.1606l0.43671-0.1606 0.0048-0.69929 0.0048-0.6993 1.3709-1.2462v-1.6551c0-0.9103 0.07861-2.2048 0.1747-2.8766l0.1747-1.2215 0.43533 0.25784-0.30612 5.7084 1.4363 0.90186-0.15043 0.37568-0.15043 0.37567 0.598 1.0708 2.6195 0.1612 0.02246 1.4552c0.01235 0.80037 0.04341 2.0668 0.06902 2.8142l0.04656 1.359 0.89728 0.17487c0.49351 0.0962 1.3011 0.24179 1.7946 0.32356l0.89728 0.14869v1.7942h1.059l0.11705-1.7859c0.06438-0.98227 0.25275-2.5003 0.41861-3.3734m30.59-36.182 0.12755-0.8599-1.989-1.4552c-1.094-0.80036-2.7423-2.0803-3.663-2.8443l-1.6739-1.3891h-0.56801c-0.31241 0-0.74049 0.14883-0.95131 0.33073l-0.3833 0.33073 0.39711-0.57691c0.99172-1.4408 3.1834-4.0303 3.4202-4.0412l0.26228-0.0121-0.3313 0.3175c-0.18222 0.17463-0.33131 0.56799-0.33131 0.87414v0.55664l0.89728 0.80117c0.49351 0.44065 2.1834 1.7803 3.7554 2.977l2.8581 2.1758 1.0633-1.0712 1.0633-1.0711 0.18389-0.93936 0.18388-0.93935-1.4815-2.7551 3.0466 2.8682-0.1768 0.28569c-0.0972 0.15713-1.0552 1.3572-2.1288 2.6669s-2.2946 2.8873-2.7133 3.5057c-0.41868 0.61846-0.81379 1.1245-0.87802 1.1245-0.0642 0-0.0594-0.38696 0.0108-0.8599zm95.17-1.3754-1.1596-1.6771 1.0321 0.25865 1.1958-1.0363c0.65768-0.56995 2.3403-1.8478 3.7392-2.8396l2.5434-1.8033 0.23156-0.66574 0.23156-0.66573 1.7558 2.288-0.52272 0.6036 1.9191 0.66504 0.88351 1.6373-0.32212 1.0303-0.32211 1.0303-2.1668 2.0152-2.4882 0.66764-0.81824-0.3248-0.81824-0.32481-0.85518-1.2508v-1.3587l-3.0733 2.2237 0.16146 0.61653c0.0888 0.33909 0.12804 0.61 0.0872 0.60203-0.0409-8e-3 -0.59612-0.76918-1.2339-1.6916zm6.6305-0.44584c0.78746-0.39153 3.502-2.9889 3.502-3.3508 0-0.15415-0.19523-0.46738-0.43385-0.69605l-0.43385-0.41578h-1.1149l-1.5625 1.2568c-0.85938 0.69123-1.6538 1.3758-1.7654 1.5214-0.25453 0.33201-0.27322 1.5722-0.0272 1.808 0.28147 0.26974 1.1643 0.21037 1.8357-0.12344zm-9.962-8.3196c-0.79459-0.66613-1.4447-1.328-1.4447-1.4708v-0.25968l0.5478 0.32445 0.3642-0.21275c0.20031-0.11702 1.2671-1.1527 2.3707-2.3015l2.0065-2.0887-0.13397-0.49095-0.13397-0.49094 0.18122 5e-3c0.0997 3e-3 0.59457 0.48179 1.0998 1.0648l0.91856 1.06-0.78051 0.93608c-0.42929 0.51484-1.4482 1.6395-2.2643 2.4993l-1.4838 1.5632 0.14651 0.53691c0.0806 0.29531 0.12495 0.53692 0.0986 0.53692-0.0263 0-0.69803-0.54502-1.4926-1.2112zm-81.834-2.8251c-0.5579-0.32668-1.2945-0.93748-1.6369-1.3573l-0.62253-0.76338-0.12177-1.4072c-0.067-0.77397-0.0415-1.7138 0.0566-2.0885l0.17842-0.68128 1.8567-0.8485 1.8619 0.33474 1.5866 1.4098-0.79129 0.55174c-0.4352 0.30345-1.0809 0.79021-1.4349 1.0817l-0.64365 0.52994 0.16834 0.42041 0.16835 0.42041 2.1852 1.177 1.1022-0.33525 0.0327-0.70978c0.018-0.39037 0.018-0.79907 0-0.90821s0.0915-0.19843 0.24339-0.19843h0.27609v1.8784l-0.42736 0.79197-0.42735 0.79198-0.69497 0.25322c-0.38223 0.13927-0.96641 0.2526-1.2982 0.25186l-0.60322-1e-3 -1.0144-0.59396zm0.39839-4.0086 0.48836-0.35513-0.8062-0.82708-0.80619-0.82708h-0.44141c-0.56208 0-0.55593 0.0705 0.11638 1.3335 0.61039 1.1466 0.72692 1.201 1.4491 0.67583zm74.508 1.1607c-0.66172-0.41668-1.2594-0.81151-1.3282-0.8774-0.0687-0.0659 0.17119-0.40366 0.5332-0.75059s1.1874-1.4845 1.8343-2.5279l1.1761-1.8972-0.10333-0.4767-0.10333-0.47669-1.3578 0.1456-0.48077 0.58865c-0.26442 0.32375-0.87135 1.3244-1.3487 2.2236l-0.86796 1.6349 0.15363 0.563 0.15363 0.56299-0.19245-0.0813c-0.70944-0.29952-3.339-1.9686-3.3454-2.1235l-8e-3 -0.19013 0.72505 0.26663 0.41855-0.47235c0.64451-0.72735 2.7216-3.9992 2.7216-4.287 0-0.14068 0.51126-1.0372 1.1361-1.9923l1.1362-1.7365-0.144-0.5277c-0.0792-0.29023-0.0755-0.5277 8e-3 -0.5277 0.35831 0 2.5559 1.4789 2.5555 1.7198-2.1e-4 0.14552-0.49655 0.97895-1.103 1.8521-0.60643 0.87312-1.103 1.6529-1.1035 1.7328-5.6e-4 0.0799 0.40432 0.1 0.89956 0.0446l0.90045-0.10075 0.75608 0.56995 0.75607 0.56995v1.7225l-3.0852 4.8809 0.15347 0.38329 0.15348 0.38329-0.1984-0.0206c-0.10912-0.0113-0.73981-0.3615-1.4015-0.77818zm12.94-1.4468-0.34072-0.39344 0.16585-0.63328 0.16586-0.63328 1.0747-0.26932 0.57004 0.38263 0.57003 0.38264v0.46124c0 0.62859-0.53914 1.0962-1.2638 1.0962h-0.6012zm-77.811-2.2337-0.28194-0.77507 0.38402-1.2228 0.38403-1.2228 0.67876-0.83117 0.67877-0.83116-0.43225-0.80894c-0.45953-0.85999-0.84219-1.1952-1.3719-1.2018l-0.32651-4e-3 -0.36338 1.0972 0.46286 0.32434 0.46286 0.32435-0.1854 1.5614-1.4813 0.164-0.31303-0.56054-0.31304-0.56054 0.35524-1.55 2.2657-1.8586h0.79672c0.43819 0 1.0383 0.12392 1.3336 0.27537l0.53691 0.27537 2.4846 4.7409h0.82271v0.27661c0 0.15213-0.3176 0.58098-0.70579 0.953l-0.70579 0.67638-0.46758-0.12923c-0.25717-0.0711-0.67377-0.21087-0.92578-0.31067l-0.45822-0.18144-0.16614 0.50165c-0.0914 0.27592-0.41804 0.76078-0.72591 1.0775l-0.55977 0.57581h-1.581zm3.2649-1.7814c0-0.20626-0.26059-0.86454-0.57909-1.4628l-0.57909-1.0878-0.24494 0.37075c-0.13472 0.20391-0.24685 0.87085-0.24917 1.4821l-4e-3 1.1113 0.96047 0.5151 0.34802-0.2768c0.19142-0.15224 0.34803-0.44556 0.34803-0.65182zm47.433-1.5467-0.60205-0.66356-0.98661 0.30009 0.92066-2.3806 0.19869 0.11768c0.10929 0.0647 0.28135 0.58646 0.38235 1.1594l0.18365 1.0417 0.37735 0.30012 0.37736 0.30013 1.2728-0.173 0.168-1.1284-2.2386-3.3192v-0.51347c0-0.2824 0.2155-0.86309 0.4789-1.2904l0.47892-0.77695 0.8325-0.21524 0.8325-0.21523 0.66772 0.23416c0.36724 0.12879 0.81518 0.42742 0.9954 0.66362l0.32768 0.42947 0.90811-0.33396v0.15944c0 0.49629-0.67572 2.2052-0.87196 2.2052h-0.23238v-1.2934l-1.2934-1.441-0.91528 0.33659v0.94971l0.95356 1.357c0.52446 0.74633 1.0315 1.6546 1.1268 2.0185l0.17325 0.66154-0.43945 0.8144c-0.53862 0.99817-1.1996 1.3593-2.4881 1.3593h-0.98628zm-37.037-1.4881-0.50889-0.28349-1.3236-2.7242-3e-3 -1.1073c-3e-3 -1.239 0.27814-2.0364 1.0411-2.9528l0.51658-0.62043 0.66926-0.0274c0.36809-0.0151 0.94726 0.0633 1.2871 0.17421l0.61779 0.20163-0.17396-0.8767c-0.0957-0.48218-0.31157-1.2884-0.47976-1.7916l-0.30579-0.9149-1.3804-0.33204 3.5891-0.7968 0.16741 0.28869c0.17418 0.30035 1.3654 5.4188 1.9299 8.2923l0.32486 1.6536h0.3764c0.73432 0 0.35946 0.43161-0.87337 1.0056-1.5276 0.71123-1.5111 0.71096-1.5111 0.0247v-0.55708l-1.602 1.6435-0.92456-8e-3c-0.50851-4e-3 -1.1536-0.13562-1.4334-0.29153zm3.2779-1.6848 0.3475-0.52916-0.48558-1.9292-0.48557-1.9292-0.63765-0.65046-0.63765-0.65047h-0.94902l-0.16758 0.41852c-0.44471 1.1106 0.11057 3.9842 1.0084 5.2186l0.53991 0.74228 1.1197-0.1616zm23.115 0.5486c-0.94833-0.17908-1.8076-0.40554-1.9096-0.50324l-0.18537-0.17765h0.88308l0.14282-0.46302c0.29718-0.96344 0.99874-4.9179 0.99874-5.6296v-0.74241l-0.34511-0.15094c-0.18981-0.083 0.3382-0.0793 1.1734 8e-3 0.83516 0.0875 1.6076 0.20968 1.7165 0.27144l0.19802 0.11231-0.15965 0.84963-0.15964 0.84964 0.43378-0.55885c0.23858-0.30736 0.81155-0.70881 1.2733-0.89209l0.83951-0.33325 0.85568 0.68056-0.166 1.3148-0.9603 0.57621-0.86694-1.1862-1.1184 0.57362-0.37058 0.84998c-0.20382 0.46748-0.45773 1.5881-0.56424 2.4904l-0.19366 1.6404 0.69066 0.79752-0.24087-0.0259c-0.13248-0.0143-1.0168-0.17244-1.9651-0.35152zm-12.186-1.1123-0.64277-0.43146-0.76994-1.7659v-2.6891l0.3879-0.71447c0.21335-0.39295 0.69565-0.98992 1.0718-1.3266l0.6839-0.61212 1.7381-0.0474 1.3175 0.6757 0.17993 0.56253c0.099 0.3094 0.28271 0.94949 0.40831 1.4224l0.22838 0.85989h-3.6037l0.14954 1.0684 0.14953 1.0684 0.89072 1.3028h1.3483l0.29552-0.52917c0.16253-0.29104 0.42967-0.52916 0.59364-0.52916h0.29812l-0.47864 0.7276c-0.26325 0.40018-0.674 0.87643-0.91278 1.0583l-0.43414 0.33073h-2.2564zm2.2212-5.5463c-0.0513-0.56856-0.19575-1.1365-0.32106-1.262l-0.22783-0.2283-0.60028 0.35554v2.2616l1.2424-0.093zm-17.12 74.968c0.0915-0.71972 0.13959-0.89434 0.5053-1.8352l0.3791-0.97531 0.65088-0.15656 0.65089-0.15655 0.25404-0.64033 0.25403-0.64032 1.7378-0.0229c4.0383-0.0531 5.896-0.0141 6.624 0.13915l0.77361 0.16284v0.7517h0.31468c0.17306 0 0.46278-0.1941 0.64379-0.43135l0.32913-0.43136 1.6339-0.0519c0.89865-0.0285 1.8203-0.12509 2.048-0.21461 0.22777-0.0895 0.65716-0.20011 0.9542-0.24578l0.54007-0.083 0.32294-1.3201 3.1193-0.1578 0.171-1.6943 2.8948-0.18385c1.5922-0.10112 3.1056-0.23666 3.3631-0.3012l0.46823-0.11735 0.58942 0.52624c0.69793 0.62313 0.68552 0.63193 1.0114-0.71759l0.25553-1.0583h5.498l0.20284-0.26458c0.11156-0.14552 0.20474-0.63407 0.20706-1.0857l4e-3 -0.82107 2.1123-0.17111c1.1618-0.0941 4.1124-0.16275 6.5571-0.15252l4.4448 0.0186 0.54319 0.20348 0.54318 0.20349 0.0482 0.90239c0.0265 0.49632 0.0616 2.5465 0.078 4.556l0.0298 3.6536 0.57862-0.34271 0.46993 0.19691c0.25846 0.1083 0.87371 0.23115 1.3672 0.27301l0.89729 0.0761v-0.95391c0-0.52465 0.21503-1.6192 0.47784-2.4324l0.47785-1.4785 0.41769-0.30818 0.41768-0.30817 0.1555 0.24111 0.15549 0.24112 3.1433-0.1304 9e-3 -0.39688 9e-3 -0.39687 0.69315 0.87312h2.1054l0.2251 0.2249c0.12381 0.12369 0.26668 0.5153 0.3175 0.87025l0.0924 0.64536 1.2647 0.308c0.69559 0.1694 1.6274 0.29571 2.0706 0.28068l0.80593-0.0273 0.6217-5.5562 1.2577-3.7042 0.11395-2.5797 0.11394-2.5797h0.5155v3.9048l0.69036 1.4451c0.7582 1.5871 1.2487 3.3998 1.416 5.2334 0.22468 2.4617 0.4463 3.8488 0.67635 4.2333l0.23744 0.39688 8e-3 -2.6528c0.01-3.0749-0.32463-6.0059-1.1311-9.9149l-0.57315-2.7781-2.4618-7.2153-3.7584-7.3368-1.6476-2.3812c-4.3593-6.3005-9.7222-11.495-16.125-15.62l-2.3177-1.4929-7.7188-3.67-3.0428-0.94463c-1.6735-0.51954-4.4762-1.2295-6.2281-1.5778l-3.1853-0.63314-7.3391-0.49869-3.2734 0.23811c-7.7272 0.5621-13.943 2.178-20.565 5.3456-5.2664 2.5195-9.2529 5.2567-13.765 9.4515-10.192 9.475-16.185 21.512-17.688 35.529l-0.16316 1.5214h10.258l-0.12947 1.1906c-0.14178 1.3039-0.0559 1.4007 0.67817 0.7641l0.4918-0.42653-0.15151-0.72602-0.15152-0.72602 0.45115-0.16591 0.45114-0.1659 0.10453 0.32627c0.0575 0.17944 0.1794 0.65369 0.2709 1.0539l0.16636 0.7276h0.51949l0.33371-1.1245c0.18354-0.61846 0.43013-1.231 0.54798-1.3612l0.21426-0.23671 0.17427 0.76587c0.1798 0.79016 1.7353 4.338 2.0345 4.6404 0.0927 0.0937 1.3178 0.21966 2.7224 0.27992l2.5538 0.10957v-5.3652l0.6212-0.28785c0.34165-0.15832 1.0418-0.35728 1.5559-0.44214l0.93468-0.15428 0.61728-0.68845 0.61728-0.68844 0.56957 0.29212c0.31325 0.16067 0.88832 0.29212 1.2779 0.29212h0.70836l0.55218-0.52916c0.66346-0.63582 0.82826-0.66001 0.82826-0.12158v0.4076l1.1734-0.0125c0.64535-7e-3 1.4458-0.01 1.7787-6e-3l0.6053 6e-3 -0.27356 2.1751 1.1336 1.0121v1.6591l0.69825-0.62865 0.69826-0.62864 0.82523 0.79084 0.82522 0.79085 0.10102 1.8422c0.0556 1.0132 0.11542 2.5268 0.13304 3.3636l0.032 1.5214h0.82826zm17.421-13.603-0.3451-0.13346v-16.377l-0.34511-0.0895c-0.18981-0.0492-1.0698-0.21987-1.9554-0.37919s-2.3041-0.59406-3.152-0.96608l-1.5417-0.67641-3.0334-2.4835-2.0348-3.0172-0.71292-3.2194h-5.9985v-1.3229h5.9834l0.9553-3.3072 1.7158-2.5707 1.5721-1.2538c0.86468-0.68961 2.1166-1.5051 2.782-1.8122 1.3464-0.62137 4.1594-1.3748 5.1331-1.3748h0.63222v-3.9688h1.1043l0.0191 0.46302c0.0105 0.25466 0.0416 1.1104 0.069 1.9018l0.0499 1.4387 3.8652 0.68266 1.9326 0.91938c1.0629 0.50566 2.381 1.277 2.929 1.7142l0.99641 0.79481 2.29 3.6322 0.67936 2.7408h5.9432v1.3229h-5.9989l-0.17005 1.189-0.17006 1.189-0.72835 1.3907c-1.5219 2.9059-3.3599 4.4988-6.7689 5.8664l-1.8264 0.73275-2.9732 0.34774-0.0486 7.8052c-0.0267 4.2929-0.0578 8.0731-0.069 8.4005-0.0205 0.59889-0.14451 0.66569-0.77965 0.42009zm-0.0789-17.486c-5e-3 -0.10914-0.285-0.5097-0.62119-0.89013l-0.61127-0.6917-3.8984-1.1148-2.2654-1.5727-0.86351-1.2028c-0.47492-0.66152-1.0448-1.6953-1.2664-2.2973l-0.40296-1.0945v-3.074l0.28439-0.71684 0.2844-0.71684-0.62951-0.88608c-0.34622-0.48734-0.72709-0.88689-0.84637-0.88788-0.11928-1e-3 -0.48176 0.56374-0.80551 1.255l-0.58863 1.2568-0.0456 4.4979 0.72983 1.4918 0.72982 1.4918 3.2338 3.184 1.4535 0.69298c1.6794 0.80069 3.9493 1.4314 5.2416 1.4565l0.89727 0.0174-0.01-0.19844zm3.7324-0.0971c0.6048-0.16091 1.871-0.64183 2.8138-1.0687l1.7142-0.77615 2.6938-2.321 0.93514-1.9365 0.93515-1.9365 0.22144-3.2393-0.43188-1.4231c-0.23753-0.78268-0.60828-1.6541-0.82389-1.9365l-0.39201-0.51341-0.94404 1.7495 0.34811 1.6784 0.3481 1.6783-0.95374 3.2875-0.88295 1.0768c-1.6377 1.9974-3.8084 3.3862-6.2102 3.9734l-1.2453 0.30446-0.6833 0.84914-0.68331 0.84914 1.0707-2e-3c0.58889-7.9e-4 1.5655-0.13313 2.1703-0.29404zm-2.4423-3.4537-0.11265-0.44194 0.65355-0.15719c0.35946-0.0865 1.0876-0.52246 1.6182-0.9689l0.96466-0.81169 0.28125-0.97042c0.15469-0.53373 0.27407-1.5657 0.2653-2.2933l-0.016-1.3229-0.23876 0.567c-0.28798 0.68388-1.3211 1.4174-1.9964 1.4174h-0.49074v-1.7782l0.70475-0.99524 0.70476-0.99525-0.17557-0.76607-0.17558-0.76606-1.7486-0.8776-2.4848-8e-3 -1.4859 0.93471-0.1956 1.4148 1.0012 1.6654 0.1282 1.9812-0.32592 0.11089-0.32593 0.11089-2.2471-1.9455v2.5403l1.1539 2.2844 1.0044 0.79343c0.55243 0.43637 1.1758 0.79341 1.3852 0.79341h0.38077l-0.14509 0.36233-0.14508 0.36233 0.55148 0.86905 0.55147 0.86904 0.53658-0.76835 0.53659-0.76836zm-2.9367 1.1439c0-0.12325-1.4184-2.1413-3.1519-4.4844-1.7336-2.3432-3.2292-4.4938-3.3237-4.7791-0.0945-0.28531-0.34601-0.6573-0.55893-0.82665l-0.38712-0.3079-0.188 0.96033c-0.10339 0.52818-0.13132 1.5255-0.062 2.2163l0.12593 1.256 0.72666 1.472 0.72665 1.472 0.97934 0.82404c1.1339 0.95411 2.2594 1.5473 3.8476 2.0279 0.62013 0.18765 1.1586 0.35296 1.1965 0.36735 0.038 0.0144 0.069-0.0747 0.069-0.19794zm7.5908-1.2187 1.3988-0.85754 2.2552-2.4552 0.94408-3.2244-0.17212-0.97632c-0.0947-0.53697-0.26565-1.1213-0.37995-1.2986l-0.20784-0.32226-2.3324 3.1812c-1.2828 1.7496-2.5052 3.5044-2.7163 3.8996-0.21116 0.39512-0.8013 1.2701-1.3114 1.9445-0.51012 0.67434-0.92749 1.2898-0.92749 1.3677 0 0.32283 2.1489-0.46116 3.4495-1.2585zm-13.475-12.618c0.42716-0.38382 1.46-1.0552 2.2951-1.4919l1.5185-0.79404 2.9522-0.65185 4.2466 0.23559 1.6463 0.77069c0.90545 0.42387 2.116 1.1766 2.6902 1.6728l1.0439 0.90208 2.1915 0.1592v-0.92569l-0.89728-0.82855c-0.49351-0.45571-1.6427-1.2573-2.5538-1.7813l-1.6565-0.95275-1.7546-0.51955-1.7546-0.51956h-1.7519c-2.274 0-4.2776 0.41754-6.3345 1.3201l-1.6565 0.72687-3.2416 2.9274 0.15309 0.2374 0.1531 0.23739 1.9342-0.0266 0.77667-0.69785zm15.14 0.55673 0.14186-0.21998-0.90246-0.64571c-0.94668-0.67735-2.1992-1.2562-3.7735-1.7439l-0.93848-0.29072-3.3687 6e-3 -1.2831 0.37319c-1.4354 0.41749-2.7585 1.0265-3.8968 1.7935l-0.76248 0.51384 0.13476 0.20897 0.13477 0.20897 14.372 0.016 0.14187-0.21998zm15.178 28.485-0.51998-0.36438 0.74329-0.84655c0.40882-0.4656 0.7433-0.94893 0.7433-1.0741v-0.22752l-1.7769-0.1658-0.63001-0.89902-0.63001-0.89903v-1.9207l0.43089-0.58955c0.23699-0.32425 0.7899-0.76747 1.2287-0.98492l0.79779-0.39536 1.822 1e-3 1.9249 0.92522 0.36156 0.66146 0.36155 0.66145-0.13588 1.2426-0.13589 1.2425-0.45231 0.83824c-0.24877 0.46102-0.95456 1.3604-1.5684 1.9986l-1.1161 1.1601h-0.46424c-0.25534 0-0.69824-0.16397-0.98422-0.36437zm2.071-4.9603c0-0.29202-0.13048-0.76457-0.28994-1.0501l-0.28994-0.51919-0.52447 0.31064v1.4504l0.64057 0.61388 0.23189-0.13735c0.12754-0.0755 0.23189-0.37627 0.23189-0.66829zm13.374 4.9472-0.53592-0.3775 1.3114-2.5364c0.72128-1.395 1.3114-2.7134 1.3114-2.9298v-0.39337h-2.4453l-0.92644 0.88783-0.90757-0.56048 0.0239-1.0906c0.0131-0.59981 0.11286-1.1758 0.22159-1.28l0.1977-0.18946 3.0914 0.0805c1.7003 0.0443 3.1422 0.12898 3.2042 0.18816 0.062 0.0592-0.48537 2.0136-1.2164 4.3431l-1.3292 4.2355h-1.4648zm-6.7479-0.93279v-0.78113l-3.4511-0.1576-0.0867-0.7214-0.0867-0.72141 0.8454-1.1776c0.46497-0.64766 1.5737-1.9111 2.4639-2.8076l1.6185-1.63 1.3196 0.1788 0.1588 4.8948h0.80754v2.1167h-0.55217v1.5875h-3.037zm0-3.8491v-1.1906h-0.26203c-0.33026 0-1.6706 1.6652-1.6706 2.0755v0.30576h1.9326zm-65.652 3.6387-3.394-0.0833-0.1507-0.37637-0.15071-0.37637 0.87751-1.2006v-4.7354l-0.89523-0.948 0.15408-0.38479 0.15408-0.3848 7.0751-0.1892 0.69022 0.77565v1.503l-0.78556 0.28889-1.1785-1.1294-2.0392 0.1624-0.1714 1.9844h1.1377v-0.51355c0-0.28246 0.14308-0.5983 0.31797-0.70189l0.31797-0.18832 0.74449 0.97573v1.0252c0 1.8091-0.8673 2.6806-1.3804 1.3872l-0.26242-0.66146h-0.87368l0.1698 2.249 2.3165 0.1614 0.5328-0.5106c0.29304-0.28083 0.58684-0.66596 0.65289-0.85585l0.12009-0.34526 0.93319 0.34318v0.54597c0 0.30028-0.18002 0.95886-0.40005 1.4635l-0.40004 0.91754-0.35919-0.0572c-0.19756-0.0315-1.8865-0.0947-3.7532-0.14052zm6.9518 9e-3 -0.85966-0.10402-0.31371-0.65984c-0.17254-0.3629-0.31371-0.83282-0.31371-1.0442v-0.38443h0.36136c0.19875 0 0.60253 0.17481 0.89728 0.38846 0.29476 0.21366 0.75334 0.39225 1.0191 0.39688l0.48315 8e-3v-0.2735c0-0.15043-0.43805-0.52119-0.97344-0.82392-1.0659-0.60271-1.5113-1.2134-1.5113-2.0722v-0.55859l1.3533-1.297 3.0994 0.0684 0.85358 1.2484-0.15973 0.39892-0.15974 0.39892h-0.38899c-0.21394 0-0.54365-0.1786-0.73269-0.39688-0.18903-0.21828-0.51484-0.39687-0.72402-0.39687h-0.38032v0.78016l0.8115 0.40216c0.44632 0.22118 1.0054 0.66745 1.2424 0.9917l0.43089 0.58955v1.2292l-1.3553 1.2989-0.90983-0.0423c-0.50041-0.0233-1.2967-0.0892-1.7695-0.14637zm6.1263-0.42858-0.71121-0.68158v-3.9928h-1.1043l0.021-0.92604 1.4915-0.99219c0.8203-0.5457 1.6853-0.99219 1.9221-0.99219h0.43068v1.5875h1.9326v1.3229h-1.959l0.1644 3.3072h1.6466l0.1684 0.8263-1.0819 0.93834-2.2096 0.28402-0.71121-0.68157zm4.7153 0.13343-0.45692-0.48385v-1.0669l0.50489-0.43789 0.50489-0.43788h1.1133l0.91384 0.96771v1.0669l-1.0098 0.87577h-1.1133zm30.189 0.24712-0.69022-0.18399v-1.0272l0.55218-0.0982c0.30369-0.054 0.70747-0.21907 0.89728-0.36675l0.34511-0.26851v-3.1102h-1.697l0.0893-0.46302 0.0893-0.46303 2.0558-0.9628 3.04-0.30068 0.1786 0.44602 0.17859 0.44601-0.46151 0.32341-0.46152 0.3234 0.1636 4.2002 0.69021 0.15537 0.69022 0.15538v1.0106l-0.69022 0.18399c-0.37962 0.1012-1.4978 0.184-2.4848 0.184s-2.1052-0.0828-2.4848-0.184z" stroke-width=".27027"/>
  <path d="m-1.9672 220.06c-0.79201-0.5043-0.12592-2.008-0.3451-2.905v-13.605c-3.1059-0.59865-6.4676-1.2367-8.779-3.5724-1.5266-1.0108-2.3867-2.7056-3.321-4.2086-0.22516-1.0168-0.45031-2.0335-0.67547-3.0503h-5.9985c-0.46008-1.5362 0.74318-1.409 1.9054-1.3229h4.078c0.51017-1.7634 0.85345-3.6043 2.1017-5.0248 1.169-1.7591 3.1626-2.8302 4.9235-3.9191 1.543-1.249 4.9923-0.60194 5.7653-1.8944v-3.4491c1.8989-0.53047 0.9429 1.907 1.2165 3.0572-0.2855 1.2967 1.5096 0.78563 2.2997 1.1478 2.438 0.28322 4.5686 1.7325 6.5885 3.0227 1.4935 1.043 2.0816 2.8964 3.151 4.319 0.33985 0.84246 0.29273 2.1795 0.85258 2.7408h5.77c0.46008 1.5362-0.74318 1.409-1.9054 1.3229h-4.0934c-0.11014 1.5429-0.46522 3.0113-1.3578 4.2984-1.7468 3.3306-5.3184 5.2259-8.8221 6.1298-0.80203 0.34324-2.7116-0.30526-2.4614 0.98024-0.054922 5.2882-0.01161 10.582-0.15444 15.866-0.068133 0.37173-0.56715 0.12024-0.7385 0.0672zm-0.0789-17.486c-0.53142-1.2396-1.6152-1.8793-2.8979-2.0581-1.454-0.30626-2.8019-0.83653-3.9348-1.8201-1.5555-1.262-2.5779-3.2443-3.0965-5.159 0.03003-1.4753-0.22002-3.0042 0.56879-4.3345-0.88444-2.0276-2.2144-1.6414-2.7222 0.4222-0.35812 1.5376-0.07732 3.2208-0.1934 4.8135 0.77988 1.5548 1.3554 3.2567 2.8174 4.3203 1.0078 0.99233 1.9246 2.1145 3.3295 2.5401 1.9225 0.87593 4.0071 1.5224 6.1389 1.4739l-0.00872-0.173-0.00128-0.0254zm3.7324-0.0971c2.2594-0.76387 4.5976-1.5669 6.2685-3.3446 1.5526-1.0658 1.8574-3.0896 2.7923-4.6296 0.08926-1.5729 0.52511-3.2278-0.17921-4.727-0.36509-2.0654-1.4659-3.0965-2.0992-0.8129-0.00626 1.578 1.0751 3.2386 0.24937 4.8001-0.25525 1.3082-0.77249 2.4837-1.7638 3.4008-1.8136 2.1336-4.4247 3.3983-7.1423 3.9105-0.3256 0.64177-2.2211 2.0371-0.50051 1.6967 0.79951 6e-3 1.5999-0.10591 2.375-0.2939zm-2.4423-3.4537c0.12068-0.98082 2.3798-1.2375 3.1238-2.3797 0.50538-1.3001 0.68595-3.6767 0.46333-4.427-0.33103 1.6481-3.3685 2.8008-2.6586 0.41595-0.031168-1.1792 1.8842-1.8666 1.2339-3.126-0.010476-1.1026-1.4154-1.4111-2.2706-1.6448-1.1162 0.0126-2.3061-0.23203-3.1745 0.64494-0.80372 0.41639-0.7926 1.8046-0.19903 2.44 0.74274 0.80709 0.58919 1.8943 0.68314 2.9042-1.0591 0.57469-1.7034-0.97459-2.5611-1.4313-0.72442-0.58971-0.15492 1.6524-0.33779 2.2479 0.61965 1.1075 0.95335 2.4485 2.1584 3.0778 1.9988 0.50886 1.2852 1.0596 2.0273 2.3871 0.43279 1.6215 1.3335-0.0896 1.5818-0.8355l-0.042859-0.16784zm-2.9367 1.1439c-2.2781-3.47-4.9088-6.7463-7.1702-10.198-0.86567 0.25589-0.48791 2.93-0.38058 4.1831 0.73396 1.3174 1.0752 2.9789 2.4376 3.8176 1.3539 1.1111 3.6008 2.3175 5.1131 2.1973zm7.5908-1.2187c1.553-0.75754 2.6652-2.1695 3.7026-3.479 0.40306-1.5923 1.2876-3.1811 0.54066-4.8188-0.40778-1.8918-1.3046 0.77335-1.9415 1.2588-2.0368 2.6834-3.8467 5.5258-5.7513 8.2975 1.1479 0.12445 2.4256-0.76425 3.4495-1.2585zm-13.475-12.618c1.8391-1.4591 3.966-2.5308 6.3046-2.8359 1.5958-0.15204 3.2786 0.0439 4.8647 0.20719 1.8954 0.82168 3.728 1.8265 5.2235 3.2721 0.79685-0.14534 2.5821 0.77209 2.1915-0.65009-1.3722-1.6603-3.4743-2.839-5.4398-3.7774-1.7509-0.53924-3.4893-1.178-5.3522-0.93584-2.7739 0.0865-5.6482 0.85653-7.9534 2.3904-0.95196 0.85972-1.9039 1.7194-2.8559 2.5791 0.42713 0.79395 2.0054 0.60545 2.6269 0.10087 0.13002-0.11676 0.26023-0.23394 0.39012-0.35042zm15.14 0.55673c-0.58474-1.3944-3.3045-2.143-4.8651-2.7121-1.3812-0.33954-2.9048-0.20921-4.3089-0.0855-2.0113 0.50946-3.9377 1.3452-5.6097 2.5838 0.54743 0.88884 1.9538 0.2038 2.8678 0.42083 3.9247 4e-3 7.8493 9e-3 11.774 0.0131l0.093883-0.14557 0.047987-0.0744z" fill="#973839" stroke-width=".27027"/>
  <circle cx="-2.0789" cy="228.26" r="56.885" fill="none" stroke="#8f3935" stroke-width="3.924"/>
  <g transform="scale(1.0649 .93909)" fill="#8b3634" stroke-width=".26458" aria-label="NYCFL">
   <path d="m-24.16 257.36-0.02613-0.45722h0.55519l0.18942-7e-3q0.3919-0.0196 0.54213-0.0196 0.07838 0 0.45722 0.0131 0.08491 7e-3 0.1437 7e-3 0.05878 0 0.41149-0.0131t0.39843-0.0131q0.07185 0 0.20248 7e-3 1.0059 0.91443 1.6394 1.5741t4.6244 4.6179v-0.16329l-0.02613-0.75767q-0.0196-0.66623-0.05225-1.0516-0.03266-0.39189-0.03919-0.92749-0.0065-0.54212-0.04572-0.97974-0.07838-0.85565-0.07838-0.98628-0.0065-0.42456-0.09144-0.516-0.13716-0.1437-0.62704-0.21555-0.35924-0.0588-0.5356-0.15022l0.0065-0.38537 0.16982-0.0196 1.2867-0.0392 1.437-0.0392q0.1437-7e-3 0.27433-7e-3l0.0065 0.42456q-0.15023 0.0784-0.30699 0.11757-0.41802 0.098-0.48334 0.13716-0.33311 0.18942-0.35924 0.22861-0.05879 0.0784-0.05879 0.24167 0 0.0392 0.01306 0.27433 0.0065 0.11757 0.0065 0.54866 0.0065 0.94709 0.05225 1.4957 0.01306 0.17636 0.0196 0.39843l0.07185 2.2926q0.0065 0.24167 0.0065 0.33965v0.80339l0.01959 0.33964-0.01959 0.35271q0.02613 0.2678 0.02613 0.32005v0.34618l-0.75114 0.0261-0.77726-0.80339-1.5872-1.5741-1.1104-1.1104-0.81646-0.83605q-0.79686-0.7838-1.45-1.3782l-1.0647-0.96015 0.05879 2.4298q0.0065 0.22208 0.0065 0.45722l-0.0065 0.46374 0.03919 0.85565q0.01959 0.53559 0.07185 1.1626 0.01306 0.16982 0.03266 0.24167 0.01959 0.0653 0.07838 0.19595 0.25473 0.0914 1.1104 0.13716 0.05878 0.0131 0.16982 0.0457l0.02613 0.52906-0.25473 7e-3q-0.20901 0-1.3194-0.098-1.0385 0.0131-1.3847 0.0392t-0.37884 0.0261q-0.07838 0-0.21554-0.0261-0.01306-0.15023-0.01306-0.26127 0-0.0718 0.0065-0.23514 0.18289-0.0327 0.30046-0.0327 0.03919 0 0.25473 0.0131 0.54866 0 0.64663-0.0784 0.10451-0.0849 0.11757-0.44416 0.04572-1.0385 0.04572-1.2671v-0.35924l0.01306-2.1228-0.01959-1.3259q-0.0065-0.75767-0.09798-1.0516-0.03919-0.15023-0.15023-0.26127-0.22861-0.23514-0.50947-0.35271-0.16982-0.0718-0.88177-0.18288z"/>
   <path d="m-13.174 256.89q0.17636-0.0523 0.81646-0.0523l0.06532 0.0131q0.16329 0.0261 0.22861 0.0261l0.06532-7e-3q0.09797 0.0131 0.5356 0.0457 0.80992 0.0588 1.2867 0.0588 0.52253 0 1.0255-0.0718 0.071848-0.0131 0.10451-0.0131l0.052253 7e-3q0.032658 0.0849 0.032658 0.13063l-0.00653 0.33965q-0.15023 0.0588-0.35924 0.0914l-0.29392 0.0523q-0.16329 0.0327-0.43762 0.0718l-0.03919 0.0261-0.01306 0.0849q0.21554 0.46375 0.91443 1.4435 0.18289 0.31352 0.36577 0.58785 0.052253 0.0718 0.3723 0.60744 0.032658 0.0588 0.071848 0.11757 0.058785 0.0914 0.11757 0.17636 0.11104 0.16329 0.1437 0.21554 0.13063 0.20901 0.22208 0.32005l0.67929-0.95362q0.33311-0.43109 0.86871-1.2541l0.026127-0.0327 0.55519-0.98628q0.13063-0.18942 0.13063-0.28086 0-0.0327-0.019595-0.11104-0.097975-0.0653-0.16329-0.0784-0.026127-0.0131-0.27433-0.0261-0.13716-0.0261-0.26127-0.0457t-0.20248-0.0392q-0.013063-0.0849-0.03919-0.48334l1.339 0.0718q0.058785 7e-3 0.16329 0.0261h0.31352l0.11104-7e-3q0.20901-0.0327 0.54213-0.0523 0.097975-7e-3 0.18942-0.0196l-0.00653 0.48987-0.084911 0.0261q-0.54866 0.0914-0.75114 0.24167-0.29392 0.22207-0.79033 1.0712l-0.84911 1.2737q-0.7642 1.0385-0.98628 1.4174-0.058785 0.0915-0.097975 0.22861v0.20248l-0.00653 0.56825v0.15676q-0.019595 0.16983-0.019595 0.35271l0.026127 1.6721q0.026127 0.0523 0.071848 0.0719 0.091443 0.0261 0.41802 0.0653 0.62704 0.0653 0.69889 0.11103 0.052253 0.0327 0.052253 0.13064 0 0.0588-0.013063 0.15676 0 0.0588-0.00653 0.18288l-0.75114-0.0131-0.69889-0.0588-0.48334-0.0326-0.72501 0.0261h-0.54213q-0.091443-7e-3 -0.29392 0.0261-0.32658 0.0522-0.48987 0.0522l-0.45068-7e-3q-0.0065-0.13716-0.0065-0.20901 0-0.0718 0.0065-0.21555l1.2018-0.2482q0.07838-0.0261 0.15023-0.0653 0.00653-0.30046 0.00653-0.37231 0-0.99934-0.013063-1.3586-0.013063-0.36577-0.013063-0.42456v-0.15022q0-0.4115-0.43109-0.94709-0.18289-0.22861-0.22861-0.30046l-1.2802-1.9464-0.60091-0.96668q-0.03266-0.0523-0.40496-0.53559-0.11757-0.10451-0.22861-0.1437-0.06532-0.0261-0.59438-0.13716-0.03266-0.0588-0.03266-0.10451 0-0.0392 0.0065-0.098 0.0065-0.0653 0.01306-0.18942z"/>
   <path d="m3.4913 256.98q0.084911 0.19595 0.34618 1.1169 0.11757 0.41803 0.1241 0.8883h-0.59438q-0.62704-0.8883-1.2933-1.2737-0.66623-0.39189-1.4892-0.39189-1.0124 0-1.6329 0.79032-0.84258 1.0712-0.84258 2.985 0 1.1104 0.1437 1.5807 0.23514 0.7642 0.59438 1.2475 0.27433 0.36578 0.71848 0.58132 0.57478 0.29392 1.2279 0.29392 0.71848 0 1.3847-0.44415 0.67276-0.45068 1.2867-1.339 0.24167-0.0457 0.63357-0.0523-0.026127 0.24821-0.084911 0.516-0.019595 0.10451-0.15023 0.82952l-0.058785 0.19595-0.091443 0.30699q-0.39843 0.30698-1.1234 0.46374-0.71848 0.15023-1.7701 0.15023-0.80339 0-1.5219-0.15023-0.71195-0.15022-1.2214-0.47681-0.74461-0.47027-1.1692-1.0189-0.42456-0.54866-0.63357-1.1953-0.20248-0.64663-0.20248-1.45 0-1.9464 1.2802-3.2136 1.2867-1.2671 3.2789-1.2671 0.80992 0 1.5219 0.0849 0.71848 0.0784 1.339 0.24167z"/>
   <path d="m4.925 265.34 0.013063-0.47028q0.1437-0.0327 0.47681-0.098t0.66623-0.15023l0.1241-0.0784q0.065316-0.26127 0.065316-0.53559v-0.0392l-0.026127-1.5088 0.00653-0.63357-0.026127-0.93403 0.013063-1.1104-0.07838-2.1881q-0.097975-0.0914-0.63357-0.18288-0.13063-0.0261-0.37884-0.10451l-0.15676-0.0392v-0.45721l0.86218 0.0327q0.7838 0.0784 2.3057 0.0784 0.7642 0 1.5937-0.0392l0.1241-7e-3 0.32005 7e-3 0.13063-7e-3h0.27433l1.1692-0.0392q0.07838 0 0.20248-0.0131 0.13063-0.0131 0.24167-0.0196 0.03919 0.19595 0.05225 0.39189l0.09797 1.228q0 0.19595-0.03919 0.30046-0.23514 0.0327-0.34618 0.0327-0.13063 0-0.20901-0.0588-0.03919-0.0392-0.15023-0.29392-0.27433-0.6597-0.47028-0.77727-0.18942-0.1241-1.0712-0.1241l-0.90137 0.0261q-0.57478 7e-3 -0.9079 0.0653-0.071848 0.0131-0.20901 0.0653-0.084911 0.15023-0.084911 0.38537l0.019595 0.77726-0.019595 0.88831q0 0.67929 0.045721 0.83605 0.058785 0.0392 0.097975 0.0457l0.46375 7e-3h0.7838q0.26127 7e-3 0.80339-0.0588 0.3723-0.0457 0.45722-0.1045 0.15676-0.10451 0.22208-0.26127 0.07185-0.16329 0.10451-0.78379 0.03266 0 0.17635-7e-3 0.09144-7e-3 0.1241-7e-3 0.07185 0 0.28739 0.0196l-0.03919 1.0451q-0.0065 0.33311-0.02613 0.57478l0.01306 0.1437q0.0065 0.0653 0.0065 0.96668 0 0.0588-0.0065 0.19595-0.1241 0.0261-0.19595 0.0261-0.05225 0-0.25473-0.0392-0.05879-0.1241-0.13063-0.35924-0.15023-0.516-0.32658-0.60091-0.31352-0.15676-1.9726-0.15676-0.24167 0-0.56172 0.0457-0.045721 0.27433-0.045721 0.63357l0.032658 1.9595q0.00653 0.54213 0.11757 0.66623 0.071848 0.0784 0.48987 0.15676l0.13063 0.0131q0.29392 0.0196 0.516 0.0849l0.17635 0.0392q0.026127 0.16983 0.026127 0.26127 0 0.098-0.019595 0.2482l-0.1241-7e-3 -0.20248 7e-3 -0.92749-0.0457q-0.15676-7e-3 -1.4631-7e-3 -0.35924 0-0.68582 0.0392-0.516 0.0588-0.56172 0.0588-0.42456 0-0.58132-7e-3z"/>
   <path d="m13.063 264.76q0.20248-0.0588 0.56825-0.11103 0.3723-0.0588 0.43762-0.0588 0.25473-7e-3 0.33964-0.0849 0.03919-0.15676 0.03919-0.26127l-0.01306-0.83605 0.03919-0.84911v-0.54212l0.0065-0.64011-0.01306-0.67929 0.02613-1.4566 0.0065-0.6597v-0.0914q-0.04572-0.68582-0.09144-0.75114-0.03919-0.0718-0.3723-0.17635-0.03266-0.0131-0.2482-0.098-0.16329-0.0653-0.29392-0.0914-0.22861-0.0588-0.32005-0.13717-0.01306-0.16982-0.01306-0.26126 0-0.0523 0.0065-0.15676 0.05879-0.0327 0.1241-0.0327 0.15676 0 1.1365 0.0523l0.93402-7e-3 0.69235 0.0131q0.45068 0 1.1561-0.0588 0.20901-0.0196 0.24167-0.0196 0.09797 0 0.13716 0.0522 0.05225 0.0719 0.05225 0.26127 0 0.15022-0.07185 0.2286-0.03919 0.0457-0.28739 0.0784l-0.80992 0.18942q-0.03266 0.0131-0.11104 0.0523-0.02613 0.0457-0.03919 0.0784l-0.0065 0.18289-0.01959 0.41149v0.11757l0.0065 0.0718q0 0.0327-0.0196 0.35924-0.0065 0.0849-0.0065 0.16982 0 0.10451 0.01306 0.35271 0.01959 0.3919 0.01959 0.68582 0 0.33965-0.01959 0.77727-0.0065 0.16329-0.0065 0.42456l-0.02613 3.096q0 0.19595 0.06532 0.25474l0.62051 0.0261 0.38537-7e-3 0.41149 0.0131q1.0516 0 1.6525-0.24167 0.45068-0.18288 0.58785-0.36577 0.22208-0.19595 0.35924-0.42455 0.1437-0.22861 0.32005-0.75767h0.20901q0.15676 0 0.35271 0.0261v0.18289q0 0.47028-0.11757 1.646-0.04572 0.47028-0.09144 0.57479-0.15023 0.0261-0.18942 0.0261h-0.24167l-0.33964 7e-3q-0.05879 0-0.77726-0.0523-0.13063-7e-3 -1.2475-0.0457-1.1169-0.0392-2.1881-0.0392l-1.3325 0.0392q-0.77073 0.0196-1.4435 0.0718h-0.09797q-0.03919 0-0.1241-7e-3 -0.01306-0.0718-0.01306-0.12411 0-0.27432 0.04572-0.39843z"/>
  </g>
 </g>
</svg>
